# xmcd
#
# Track frame offsets:
#	182
#	19782
#	36270
#	58982
#	81382
#	98145
#	111107
#	131432
#	151720
#	171970
#	188595
#	205707
#	221970
#	243232
#	255045
#
# Disc length: 3612 seconds
#
# Revision: 1
# Processed by: cddbd v1.5.2PL0 Copyright (c) Steve Scherf et al.
# Submitted via: audiograbber 1.83.01
#
DISCID=c40e1a0f
DTITLE=Dieter Kropp And The Fabulous Barbecue Boys - 1998 - Easy Rockin'
DYEAR=1998
DGENRE=Blues
TTITLE0=T-Bone Shuffle
TTITLE1=Easy Rockin'
TTITLE2=Don't Treat Me This Way
TTITLE3=Just A  Feeling
TTITLE4=You're Humbuggin' Me
TTITLE5=Peach Tree
TTITLE6=It's Too Late Brother
TTITLE7=I'm The One
TTITLE8=Lonesome In My Bedroom
TTITLE9=Cool Disposition
TTITLE10=Another Show To Go
TTITLE11=Make Our Love A Lifetime Stand
TTITLE12=Midnight Swing
TTITLE13=Temperature
TTITLE14=Dressed To Sharp
EXTD=YEAR: 1998
EXTT0=
EXTT1=
EXTT2=
EXTT3=
EXTT4=
EXTT5=
EXTT6=
EXTT7=
EXTT8=
EXTT9=
EXTT10=
EXTT11=
EXTT12=
EXTT13=
EXTT14=
PLAYORDER=
